# xmcd
# 
# Track frame offsets:
#     150
#     15080
#     29295
#     47862
#     59057
#     75307
#     94427
#     105042
#     120425
#     135642
#     152867
#     166137
#     180120
#     191245
#     207377
# 
# Disc length: 2947
# 
# Revision: 3
# Processed by: cddbd v1.5.2PL0 Copyright (c) Steve Scherf et al.
# Submitted via: BonkEnc v1.0.6
# 
DISCID=b60b810f
DTITLE=Keith Whitley - Sad Songs and Waltzes
DYEAR=2000
DGENRE=Country
TTITLE0=I Never Go Around Mirrors
TTITLE1=(I've Always Been) Honky Tonk Crazy
TTITLE2=To Be Loved By A Woman
TTITLE3=Where Did You Learn To Love Like That
TTITLE4=I Would Have Loved You All Night Long
TTITLE5=SomeWhere Between
TTITLE6=Girl From The Canyon
TTITLE7=Does Fort Worth Ever Cross Your Mind
TTITLE8=I Don't Know You Well Enough To Say Goodbye
TTITLE9=Dance With Me Molly
TTITLE10=Where Are All The Girls I Used To Cheat With
TTITLE11=Sad Songs And Waltzes
TTITLE12=Another Town
TTITLE13=Long Black Limousine
TTITLE14=Family Tree
EXTD=YEAR: 2000 ID3G:   2
EXTT0=
EXTT1=
EXTT2=
EXTT3=
EXTT4=
EXTT5=
EXTT6=
EXTT7=
EXTT8=
EXTT9=
EXTT10=
EXTT11=
EXTT12=
EXTT13=
EXTT14=
PLAYORDER=
